<svg xmlns="http://www.w3.org/2000/svg" fill="none" viewBox="0 0 298 246" height="246" width="298">
<path fill="#00040A" d="M8.8062 229.165C8.8062 229.165 7.62627 230.347 6.44636 229.165C4.08652 227.984 -1.81307 224.438 0.546769 219.711C2.9066 214.984 120.898 9.35777 123.258 6.99425C127.978 -1.27808 142.137 -0.096318 145.677 11.7213C149.216 23.5389 181.074 115.716 182.254 118.08C183.434 122.807 178.714 129.897 176.354 127.534C173.995 125.17 140.957 79.0817 138.597 76.7182C135.057 71.9911 127.978 73.1729 123.258 79.0817C122.078 81.4452 18.2455 216.166 8.8062 229.165Z"></path>
<path fill="#00954D" d="M84.3209 139.351C83.1409 140.533 83.1409 142.897 84.3209 144.078C90.2204 158.26 120.898 223.257 124.438 233.892C129.158 248.074 146.856 249.255 155.116 236.256C156.296 232.711 291.986 23.5388 295.526 18.8117C300.246 11.7212 295.526 4.63058 290.806 1.0853C289.627 -0.0964658 287.267 -0.0964658 286.087 1.0853C269.568 21.1752 150.396 167.714 148.036 170.077C143.317 175.986 135.057 174.804 132.697 171.259C131.518 168.895 111.459 136.988 103.2 123.989C102.02 121.625 98.4799 121.625 96.12 123.989L84.3209 139.351Z"></path>
</svg>
